<svg xmlns="http://www.w3.org/2000/svg" width="16" height="20" viewBox="0 0 16 20">
    <g fill="none" fill-rule="evenodd">
        <g>
            <g>
                <path fill="#4B34FB" d="M7.757 1.33c-.85 0-1.655.169-2.416.506l-.313.156c-.865.44-1.554 1.056-2.067 1.845-.513.79-.769 1.653-.769 2.59H13.31c0-.937-.256-1.8-.769-2.59-.512-.79-1.198-1.404-2.055-1.845l-.312-.156c-.762-.337-1.567-.505-2.416-.505m0 1c.705 0 1.381.14 1.97.4l.3.15c.707.364 1.255.855 1.674 1.5.218.336.376.683.477 1.046H3.323c.101-.363.26-.71.477-1.045.42-.645.97-1.135 1.675-1.495l.27-.137c.63-.278 1.307-.42 2.012-.42" transform="translate(-122 -304) translate(122 304)"/>
                <path fill="#4B34FB" d="M6.152 4.282c-.092.093-.203.138-.33.138-.129 0-.237-.045-.325-.138-.088-.093-.132-.202-.132-.332 0-.127.044-.237.132-.33.088-.091.196-.138.324-.138s.24.046.331.138c.092.093.138.204.138.33 0 .13-.046.24-.138.332M10.005 4.282c-.088.093-.196.138-.324.138-.13 0-.24-.045-.331-.138-.093-.093-.138-.202-.138-.332 0-.127.045-.237.138-.33.092-.091.202-.138.33-.138.129 0 .237.046.325.138.088.093.132.204.132.33 0 .13-.044.24-.132.332M13.273 6.86H2.24v8.005c0 .369.128.68.385.937.256.256.568.385.937.385h8.4c.362 0 .67-.128.927-.385.256-.256.384-.568.384-.937V6.86zm-1 1v7.005c0 .117-.032.17-.091.23-.07.069-.124.092-.22.092h-8.4c-.117 0-.171-.033-.23-.092-.06-.06-.092-.113-.092-.23V7.86h9.033z" transform="translate(-122 -304) translate(122 304)"/>
                <path stroke="#4B34FB" stroke-linecap="round" d="M.5 7.15L.5 13.706M15.012 7.15L15.012 13.706M9.876 15.783L9.876 19.489M5.676 15.783L5.676 19.489M4.397.5L5.144 1.877M11.07.5L10.323 1.877" transform="translate(-122 -304) translate(122 304)"/>
            </g>
        </g>
    </g>
</svg>
