<svg xmlns="http://www.w3.org/2000/svg" xmlns:xlink="http://www.w3.org/1999/xlink" width="16" height="21" viewBox="0 0 16 21">
    <defs>
        <path id="ay2oa2uyea" d="M0 0.809L15.263 0.809 15.263 15.999 0 15.999z"/>
    </defs>
    <g fill="none" fill-rule="evenodd">
        <g>
            <g>
                <path fill="#4B34FB" d="M11.362 0s-1.71.008-2.94 1.741c-1.094 1.54-.816 2.857-.816 2.857s.09.017.246.017c.475 0 1.56-.156 2.542-1.418C11.617 1.628 11.362 0 11.362 0m-1.13 1.385c-.113.368-.305.784-.627 1.198-.31.397-.622.644-.901.795.095-.31.259-.672.533-1.059.315-.444.668-.739.995-.934" transform="translate(-122 -362) translate(122 362.5)"/>
                <g transform="translate(-122 -362) translate(122 362.5) translate(0 4)">
                    <mask id="moqt6214tb" fill="#fff">
                        <use xlink:href="#ay2oa2uyea"/>
                    </mask>
                    <path fill="#4B34FB" d="M11.099.81c-1.53 0-2.703.928-3.337.928-.736 0-1.837-.872-3.255-.872C2.326.866 0 2.95 0 6.928c0 4.043 2.747 9.07 4.922 9.07.759 0 1.925-.816 3.1-.816 1.152 0 2.003.787 3.097.787 2.38 0 4.144-5.302 4.144-5.302S12.74 9.627 12.74 6.6c0-2.684 2.025-3.79 2.025-3.79s-1.035-2-3.667-2m0 1c1.097 0 1.828.442 2.264.84-.73.715-1.622 1.99-1.622 3.95 0 2.459 1.364 3.845 2.296 4.505-.73 1.81-1.974 3.865-2.918 3.865-.348 0-.714-.146-1.137-.315-.556-.22-1.185-.471-1.96-.471-.838 0-1.615.3-2.238.542-.3.115-.71.273-.862.273C3.69 15 1 10.95 1 6.93c0-3.29 1.807-5.064 3.507-5.064.626 0 1.203.238 1.76.467.509.209.989.407 1.495.407.454 0 .882-.184 1.377-.397.579-.25 1.235-.532 1.96-.532" mask="url(#moqt6214tb)"/>
                </g>
            </g>
        </g>
    </g>
</svg>
