<svg xmlns="http://www.w3.org/2000/svg" xmlns:xlink="http://www.w3.org/1999/xlink" width="12" height="20" viewBox="0 0 12 20">
    <defs>
        <path id="iv4jrnxx6a" d="M0 0L11.136 0 11.136 20 0 20z"/>
    </defs>
    <g fill="none" fill-rule="evenodd">
        <g>
            <g>
                <g transform="translate(-412 -246) translate(412 246)">
                    <mask id="l6o1z0nzqb" fill="#fff">
                        <use xlink:href="#iv4jrnxx6a"/>
                    </mask>
                    <path  fill="#4B34FB" d="M6.73 1.266l.073-.26h-2.49l.065.26H6.73zm-5.277-.26c-.246 0-.447.2-.448.447v17.094c.001.246.202.447.448.447h8.23c.246 0 .446-.201.447-.447V1.453c0-.247-.2-.447-.447-.447H7.848l-.252.899c-.062.217-.26.367-.485.367H3.985c-.23 0-.432-.156-.488-.381l-.222-.885H1.453zm0 18.994c-.8-.001-1.452-.652-1.453-1.452V1.453C.001.653.652.001 1.452 0h8.231c.8.001 1.452.653 1.453 1.452v17.095c0 .801-.653 1.452-1.452 1.453h-8.23z" mask="url(#l6o1z0nzqb)"/>
                </g>
                <path fill="#4B34FB" d="M4.46 18.34c-.277 0-.503-.226-.503-.502 0-.277.226-.503.503-.503h2.216c.277 0 .503.226.503.503 0 .276-.226.503-.503.503H4.46z" transform="translate(-412 -246) translate(412 246)"/>
            </g>
        </g>
    </g>
</svg>
