<?xml version="1.0" encoding="utf-8"?>
<!-- Generator: Adobe Illustrator 24.0.1, SVG Export Plug-In . SVG Version: 6.00 Build 0)  -->
<svg version="1.1" id="Layer_1" xmlns="http://www.w3.org/2000/svg" xmlns:xlink="http://www.w3.org/1999/xlink" x="0px" y="0px"
	 viewBox="0 0 16 20" style="enable-background:new 0 0 16 20;" xml:space="preserve">
<style type="text/css">
	.st0{fill-rule:evenodd;clip-rule:evenodd;fill:#4B34FB;}
	.st1{fill:none;stroke:#4B34FB;stroke-linecap:round;}
	.st2{fill:#4B34FB;}
</style>
<g>
	<path class="st2" d="M0.3,10.4c0-1,0-2.1,0-3.1c0-0.9,0.4-1.6,1.2-2c1.8-1,3.6-2.1,5.4-3.1c0.8-0.4,1.6-0.5,2.3,0
		c1.8,1,3.6,2.1,5.4,3.1c0.8,0.4,1.1,1.1,1.1,2c0,2.1,0,4.2,0,6.3c0,0.9-0.4,1.5-1.1,2c-1.8,1.1-3.7,2.1-5.5,3.2
		c-0.7,0.4-1.5,0.4-2.2,0c-1.9-1.1-3.7-2.1-5.5-3.2c-0.7-0.4-1.1-1.1-1.1-1.9C0.3,12.5,0.3,11.5,0.3,10.4z M15.2,10.4c0-1,0-2,0-3.1
		c0-0.7-0.3-1.3-1-1.7c-0.4-0.2-0.8-0.5-1.2-0.7c-1.4-0.8-2.7-1.6-4.1-2.4c-0.6-0.4-1.2-0.4-1.8,0c-1.8,1-3.6,2.1-5.4,3.1
		C1.1,6.1,0.8,6.6,0.8,7.3c0,2.1,0,4.2,0,6.2c0,0.7,0.3,1.2,0.9,1.6c1.8,1,3.5,2,5.3,3.1c0.7,0.4,1.3,0.4,1.9,0c1.8-1,3.5-2,5.3-3.1
		c0.6-0.4,1-0.9,1-1.6C15.2,12.5,15.2,11.4,15.2,10.4z"/>
	<path class="st2" d="M5,13.6c0-0.1,0-0.1,0-0.2c0-2.6,0-5.1,0-7.7c0-0.1,0-0.1,0-0.2c0-0.2,0.1-0.3,0.3-0.3c0.2,0,0.2,0.1,0.3,0.2
		c0,0,0,0.1,0,0.1c0,3.1,0,6.1,0,9.2c0,0,0,0.1,0,0.1c0,0.1,0,0.3-0.2,0.3c-0.2,0-0.3,0-0.3-0.2c-0.1-0.3-0.3-0.6-0.4-1
		C4,12.4,3.3,10.7,2.6,9c0,0,0-0.1-0.1-0.1c0,0.1,0,0.1,0,0.2c0,1.2,0,2.4,0,3.7c0,0.1,0,0.2,0,0.2c0,0.1-0.1,0.2-0.3,0.2
		C2.1,13.2,2,13.1,2,13c0,0,0-0.1,0-0.1c0-1.8,0-3.5,0-5.3c0,0,0,0,0-0.1C2,7.4,2,7.3,2.2,7.2c0.1,0,0.2,0,0.3,0.2
		C2.7,7.8,2.9,8.3,3,8.8c0.6,1.6,1.3,3.1,1.9,4.7C4.9,13.5,5,13.5,5,13.6C5,13.6,5,13.6,5,13.6z"/>
	<path class="st2" d="M7.7,4.3c0,0.1,0,0.2,0,0.2c0,1.8,0,3.7,0,5.5c0,0.2,0,0.2,0.2,0.2c0.7,0,1.5,0,2.2,0c0.1,0,0.1,0,0.2,0
		c0.2,0,0.3,0.1,0.3,0.2c0,0.2-0.1,0.3-0.3,0.3c-0.3,0-0.6,0-0.8,0c-0.5,0-1,0-1.6,0c-0.1,0-0.1,0-0.2,0c0,0.1,0,0.2,0,0.2
		c0,1.8,0,3.7,0,5.5c0,0.1,0,0.1,0,0.2c0,0.1-0.1,0.2-0.2,0.2c-0.1,0-0.2-0.1-0.2-0.2c0-0.1,0-0.1,0-0.2c0-1.9,0-3.9,0-5.8
		c0-2.2,0-4.5,0-6.7c0,0,0,0,0-0.1c0-0.3,0.2-0.4,0.4-0.3c0.8,0.4,1.5,0.8,2.3,1.2c0.2,0.1,0.5,0.3,0.7,0.4c0.2,0.1,0.2,0.2,0.2,0.4
		c-0.1,0.1-0.2,0.2-0.4,0.1C9.5,5.3,8.7,4.8,7.9,4.4C7.8,4.4,7.8,4.3,7.7,4.3z"/>
	<path class="st2" d="M12.8,7c0,0.1,0,0.2,0,0.4c0,2.3,0,4.5,0,6.8c0,0.3-0.1,0.4-0.3,0.4c-0.2,0-0.2-0.1-0.2-0.4c0-2.4,0-4.8,0-7.2
		c0-0.2,0-0.3-0.2-0.3c-0.2-0.1-0.5-0.2-0.7-0.4c-0.2-0.1-0.2-0.2-0.2-0.4c0.1-0.1,0.2-0.2,0.4-0.1c0.8,0.4,1.6,0.8,2.3,1.2
		c0.2,0.1,0.2,0.2,0.2,0.4c-0.1,0.1-0.2,0.2-0.4,0.1c-0.2-0.1-0.5-0.2-0.7-0.4C12.9,7.1,12.9,7.1,12.8,7z"/>
</g>
</svg>
