<svg xmlns="http://www.w3.org/2000/svg" xmlns:xlink="http://www.w3.org/1999/xlink" width="21" height="13" viewBox="0 0 21 13">
    <defs>
        <path id="s7wsk8fyya" d="M0 0.001L20.199 0.001 20.199 12.627 0 12.627z"/>
    </defs>
    <g fill="none" fill-rule="evenodd">
        <g>
            <g transform="translate(-122 -426) translate(122 426)">
                <mask id="75scdc0v0b" fill="#fff">
                    <use xlink:href="#s7wsk8fyya"/>
                </mask>
                <path fill="#4B34FB" d="M6.306 4.147c-.432 0-.85.127-1.205.369-.35.236-.62.564-.782.949-.112.266-.17.548-.17.838 0 .431.129.849.369 1.205.236.348.564.619.949.782.265.113.547.17.839.17.32 0 .627-.069.914-.203.273-.127.522-.317.72-.546.164-.192.292-.405.38-.637.092-.24.14-.494.142-.752 0-.15.004-.255.01-.36-.015-.114-.045-.225-.092-.34-.048-.119-.111-.239-.176-.345-.121-.204-.245-.357-.266-.383-.196-.228-.445-.417-.72-.545-.285-.134-.592-.202-.912-.202zm7.588 0c-.32 0-.626.068-.913.202-.273.128-.522.317-.72.547-.165.19-.293.405-.381.636-.092.24-.14.492-.141.753.004.21.032.39.084.572.047.168.112.319.175.444.128.252.257.402.258.404.203.234.452.425.725.553.287.134.594.202.913.202.432 0 .849-.128 1.205-.369.349-.235.619-.563.782-.948.112-.268.169-.55.169-.84 0-.431-.128-.848-.368-1.205-.234-.348-.563-.619-.95-.782-.265-.111-.547-.168-.838-.168zM11.103 9.68c.515.428 1.14.738 1.8.89.199.046.35.207.386.412l.07.41c.01.059.04.11.086.149.044.037.099.056.158.056h.558c.06 0 .113-.018.159-.057.045-.038.074-.088.084-.147l.07-.413c.037-.204.187-.364.386-.41.472-.11.922-.296 1.337-.556.08-.05.172-.076.267-.076.108 0 .21.032.297.095l.34.24c.043.03.09.045.142.045l.245-.002.335-.479.073-.175c0-.052-.016-.099-.046-.142l-.24-.343c-.12-.168-.126-.39-.018-.563.259-.414.445-.866.555-1.342.046-.199.207-.35.41-.386l.41-.07c.058-.01.109-.04.148-.085.037-.045.057-.1.057-.16v-.575c0-.059-.02-.115-.058-.16-.037-.045-.088-.075-.147-.085l-.41-.07c-.203-.035-.364-.188-.41-.386-.11-.478-.296-.928-.555-1.341-.107-.175-.1-.396.018-.565l.24-.342c.03-.042.046-.09.046-.143l-.072-.175-.407-.407-.174-.071c-.051 0-.1.014-.142.045l-.34.24c-.087.062-.19.094-.297.094-.095 0-.187-.026-.267-.076-.415-.26-.865-.447-1.337-.556-.2-.046-.35-.208-.385-.411l-.071-.412c-.01-.058-.04-.11-.084-.147-.046-.038-.1-.058-.16-.058h-.573c-.058 0-.114.02-.16.058-.044.037-.073.089-.083.147l-.07.407c-.036.206-.19.37-.39.416-.663.153-1.291.468-1.816.907-.213.179-.408.376-.58.586-.316.385-.561.813-.73 1.275-.175.479-.265.982-.268 1.497-.003.431-.074.806-.21 1.162-.13.344-.32.66-.56.94-.291.34-.658.618-1.061.807-.424.2-.877.301-1.348.301-.638 0-1.253-.189-1.778-.545-.513-.348-.912-.833-1.152-1.403-.166-.393-.25-.81-.25-1.242 0-.639.188-1.256.543-1.783.347-.514.83-.913 1.399-1.155.392-.167.808-.25 1.238-.25.47 0 .924.1 1.348.3.403.19.77.469 1.062.807.02.026.057.07.104.133.156-.405.362-.792.614-1.155-.167-.15-.281-.243-.307-.263-.54-.451-1.17-.765-1.833-.918-.2-.048-.352-.21-.39-.417l-.07-.407c-.01-.058-.038-.11-.083-.147C6.71.99 6.658.97 6.598.97h-.56c-.057 0-.113.02-.158.058-.045.037-.074.089-.084.147l-.071.411c-.034.204-.186.365-.385.411-.472.11-.922.296-1.336.556-.08.05-.173.077-.267.077-.107 0-.21-.032-.297-.095l-.341-.24c-.042-.03-.09-.044-.142-.044l-.174.071-.407.407-.071.175c0 .054.016.102.045.143l.24.342c.119.17.126.39.019.564-.26.416-.447.866-.556 1.342-.045.199-.206.35-.41.386l-.41.07c-.058.01-.11.04-.147.085-.037.044-.057.1-.058.16v.575c0 .06.02.115.058.16.039.046.09.075.148.085l.409.07c.204.035.365.188.41.386.108.475.296.926.556 1.342.108.173.1.394-.018.563l-.241.344c-.03.041-.045.088-.045.141l.072.175.407.409.173.072c.052 0 .1-.015.142-.045l.34-.24c.088-.063.19-.095.298-.095.094 0 .187.025.268.076.413.26.863.447 1.335.556.199.046.35.207.385.412l.07.41c.01.059.04.11.086.149.044.037.1.056.158.056h.575c.059 0 .112-.018.158-.057.045-.038.074-.088.084-.147l.07-.409c.036-.206.189-.368.389-.415.664-.154 1.293-.467 1.817-.907.21-.175.405-.372.58-.585.315-.383.56-.813.73-1.274.176-.48.266-.984.268-1.5.003-.428.074-.803.209-1.16.133-.345.322-.662.56-.94.297-.346.654-.618 1.063-.809.423-.199.876-.3 1.348-.3.637 0 1.252.189 1.777.546.513.346.91.831 1.152 1.403.166.391.25.81.25 1.24 0 .64-.188 1.256-.543 1.783-.347.515-.83.914-1.4 1.156-.39.167-.806.252-1.236.252-.472 0-.925-.101-1.35-.302-.406-.19-.762-.462-1.057-.804-.014-.016-.053-.063-.108-.136-.152.396-.35.774-.591 1.123l.319.325zm2.49 2.947c-.3 0-.59-.107-.818-.299-.228-.191-.382-.46-.434-.755l-.014-.087c-.703-.21-1.344-.554-1.91-1.025l-.302-.303c-.107.107-.218.208-.334.303-.564.471-1.205.816-1.907 1.025l-.015.088c-.051.293-.204.562-.434.755-.227.191-.518.297-.818.297h-.574c-.3 0-.59-.105-.818-.298-.228-.19-.383-.458-.434-.755l-.015-.087c-.35-.104-.69-.245-1.01-.418l-.072.053c-.214.15-.466.23-.73.23-.167 0-.328-.03-.481-.093-.157-.063-.298-.157-.42-.277l-.404-.406c-.121-.12-.215-.26-.28-.42-.061-.15-.092-.313-.092-.478 0-.263.079-.516.23-.732l.052-.072c-.172-.32-.313-.659-.418-1.007l-.088-.015C.759 7.8.492 7.646.299 7.418c-.193-.229-.3-.519-.3-.817v-.574c0-.3.107-.59.3-.817.193-.23.46-.383.755-.434l.087-.015c.103-.346.244-.684.418-1.008l-.051-.071c-.152-.216-.231-.47-.231-.732 0-.167.03-.328.092-.48.065-.158.159-.299.28-.419l.405-.405c.12-.12.262-.213.419-.277.153-.063.314-.095.479-.095.264 0 .517.081.732.232l.073.052c.32-.173.659-.314 1.009-.419l.015-.087c.05-.295.206-.563.434-.754.228-.193.519-.297.818-.297h.574c.3 0 .59.104.818.297.23.194.383.46.434.754l.015.087c.7.21 1.338.552 1.9 1.02 0 0 .26.217.337.284.098-.098.2-.19.307-.279.565-.47 1.206-.815 1.909-1.025l.014-.087c.052-.295.205-.562.434-.754.229-.193.519-.297.818-.297h.574c.3 0 .59.104.819.297.229.194.383.46.433.754l.016.087c.348.105.686.246 1.008.419l.073-.052c.216-.15.469-.232.73-.232.165 0 .328.032.48.095.158.064.3.157.42.278l.406.404c.12.121.214.262.278.42.063.153.094.314.094.478 0 .263-.08.516-.231.732l-.052.072c.173.32.313.66.418 1.008l.088.014c.295.051.562.205.755.434.192.229.298.519.298.818V6.6c0 .298-.106.588-.298.817-.193.228-.46.381-.756.433l-.087.014c-.105.35-.245.688-.418 1.008l.052.072c.15.216.23.47.23.732 0 .165-.03.325-.093.479-.064.157-.158.298-.277.418l-.407.406c-.12.12-.261.213-.418.277-.154.063-.316.095-.481.095-.264 0-.516-.08-.731-.232l-.073-.051c-.322.172-.66.313-1.008.417l-.016.088c-.05.293-.204.562-.433.755-.228.191-.52.297-.82.297h-.573z" mask="url(#75scdc0v0b)"/>
            </g>
        </g>
    </g>
</svg>
