<svg xmlns="http://www.w3.org/2000/svg" xmlns:xlink="http://www.w3.org/1999/xlink" width="20" height="18" viewBox="0 0 20 18">
    <defs>
        <path id="agxcycanja" d="M0 0.41L9.274 0.41 9.274 18 0 18z"/>
    </defs>
    <g fill="none" fill-rule="evenodd">
        <g>
            <g>
                <g transform="translate(-408 -366) translate(408 365) translate(0 .59)">
                    <mask id="y8wfel8sxb" fill="#fff">
                        <use xlink:href="#agxcycanja"/>
                    </mask>
                    <path fill="#4B34FB" d="M1.331 1.412c-.18 0-.329.148-.329.329V16.67c0 .18.148.327.33.327h6.611c.181 0 .328-.147.33-.328V1.739c-.002-.18-.149-.326-.33-.327H1.331zm0 16.588C.598 17.998.001 17.4 0 16.67V1.74C0 1.008.6.41 1.33.41h6.613c.733 0 1.33.598 1.331 1.33v14.93c0 .73-.598 1.328-1.33 1.33H1.331z" mask="url(#y8wfel8sxb)"/>
                </g>
                <path fill="#4B34FB" d="M11.637 2.002c-.181.001-.329.148-.329.33V17.26c0 .18.148.327.329.327h6.612c.181 0 .328-.147.329-.328V2.33c-.001-.18-.148-.327-.329-.328h-6.612zm0 16.588c-.733-.002-1.331-.599-1.332-1.33V2.33c.001-.732.599-1.329 1.331-1.33h6.613c.733.001 1.33.598 1.331 1.33v14.93c-.001.731-.598 1.328-1.33 1.33h-6.613z" transform="translate(-408 -366) translate(408 365)"/>
                <path fill="#4B34FB" d="M13.977 3.845c-.276 0-.5-.225-.5-.5 0-.276.224-.5.5-.5h1.931c.276 0 .5.224.5.5 0 .275-.224.5-.5.5h-1.93zM3.672 3.845c-.275 0-.5-.225-.5-.5 0-.276.225-.5.5-.5h1.93c.277 0 .5.224.5.5 0 .275-.223.5-.5.5h-1.93zM3.95 10.276l1.314-.008-.674-1.811-.64 1.819zm-1.114 2.116c-.137 0-.26-.051-.366-.15-.106-.1-.161-.218-.163-.348 0-.072.011-.147.035-.224.022-.073.059-.174.11-.303L3.815 7.84c.051-.13.106-.242.164-.33.062-.093.143-.17.242-.224.099-.058.223-.087.368-.088.151 0 .274.028.373.084.101.055.181.127.243.217.06.086.111.178.151.275.04.095.091.222.152.38l1.302 3.159c.104.247.156.426.157.543 0 .13-.052.248-.156.353-.104.105-.232.159-.38.16-.089 0-.164-.016-.226-.047-.061-.03-.115-.072-.158-.127-.04-.05-.083-.126-.13-.232l-.115-.261-.225-.583-1.922.01-.217.597c-.093.254-.172.423-.239.513-.071.099-.193.15-.359.152h-.004zM14.942 9.355c.244 0 .426-.022.556-.067.124-.043.215-.122.28-.244.054-.088.078-.183.078-.29 0-.225-.077-.371-.233-.444-.168-.077-.432-.117-.785-.117h-.753v1.162h.857zm.157 2.146c.954 0 .954-.506.954-.673 0-.228-.08-.394-.236-.494-.167-.107-.413-.16-.751-.16h-.981v1.327h1.014zm-1.46.853c-.23 0-.4-.055-.502-.162-.102-.106-.153-.274-.153-.5v-3.69c0-.23.052-.4.157-.504.106-.105.273-.16.498-.16h1.59c.239 0 .446.017.619.045.178.032.34.09.48.176.12.07.23.164.322.275.093.11.165.233.213.367.049.133.074.276.074.425 0 .37-.18.785-.497 1.04.489.282.728.689.728 1.235 0 .288-.072.54-.22.77-.148.232-.341.398-.592.507-.154.066-.331.11-.53.138-.195.025-.426.038-.687.038h-1.5z" transform="translate(-408 -366) translate(408 365)"/>
            </g>
        </g>
    </g>
</svg>
