<svg xmlns="http://www.w3.org/2000/svg" xmlns:xlink="http://www.w3.org/1999/xlink" width="20" height="21" viewBox="0 0 20 21">
    <defs>
        <path id="zmbddgkeaa" d="M0 0.001L20 0.001 20 20 0 20z"/>
    </defs>
    <g fill="none" fill-rule="evenodd">
        <g>
            <g>
                <g>
                    <g transform="translate(-118 -244) translate(85 139) translate(33 105.5) translate(0 -.001)">
                        <mask id="uy5joij5zb" fill="#fff">
                            <use xlink:href="#zmbddgkeaa"/>
                        </mask>
                        <path fill="#4B34FB" d="M18.724.001H1.278C.573.001 0 .572 0 1.277v17.448C0 19.427.572 20 1.278 20h17.446c.705 0 1.276-.573 1.276-1.275V1.277c0-.705-.571-1.276-1.276-1.276m0 1c.152 0 .276.124.276.276v17.448c0 .151-.124.275-.276.275H1.278C1.125 19 1 18.876 1 18.725V1.277c0-.152.125-.276.278-.276h17.446" mask="url(#uy5joij5zb)"/>
                    </g>
                    <path fill="#4B34FB" d="M10.956 12.61L10.956 10.361 8.764 10.361 8.764 12.61 7.735 12.61 7.735 7.429 8.764 7.429 8.764 9.494 10.956 9.494 10.956 7.429 11.976 7.429 11.976 12.61zM14.244 9.937c.107.024.31.034.503.034.704 0 1.14-.373 1.14-.973 0-.545-.4-.885-1.044-.885-.23 0-.346.02-.554.059l-.045.014v1.75zm-1.011 2.673V7.482l.213-.025c.375-.046.824-.068 1.333-.068.719 0 1.236.134 1.582.409.342.27.539.697.539 1.169 0 .494-.166.922-.466 1.206-.373.353-.954.539-1.68.539-.153 0-.292-.007-.402-.023l-.108-.015v1.936h-1.011zM4.112 9.937c.106.024.309.034.502.034.704 0 1.141-.373 1.141-.973 0-.545-.4-.885-1.044-.885-.229 0-.337.018-.554.059l-.045.014v1.75zM3.1 12.61V7.482l.212-.025c.376-.046.825-.068 1.335-.068.719 0 1.237.134 1.582.409.342.27.539.697.539 1.169 0 .493-.166.92-.466 1.206-.375.353-.956.539-1.68.539-.154 0-.293-.007-.402-.023l-.108-.015v1.936H3.1z" transform="translate(-118 -244) translate(85 139) translate(33 105.5)"/>
                </g>
            </g>
        </g>
    </g>
</svg>
