<svg xmlns="http://www.w3.org/2000/svg" width="2872.56" height="1912.189" viewBox="0 0 2872.56 1912.189">
  <g id="Layer_14" transform="translate(-11.65 -90.827)" opacity="0.54">
    <g id="Group_3175" data-name="Group 3175" transform="translate(11.65 90.827)" opacity="0.3">
      <path id="Path_785" data-name="Path 785" d="M2881.949,811.3c-14.39-133.619-99.934-290.571-234.689-430.615-125.162-130.078-274.03-227.741-398.205-261.256-366.685-98.961-518.474,67.206-755.213,369.42-18.585,23.724-36.714,47.353-54.253,70.2-105.05,136.882-195.769,255.1-324.543,322.993C973.9,956.469,800.409,960.19,569.08,893.729c-143.428-41.21-262.681-27.295-354.423,41.36C19.314,1081.264,14.049,1430.517,13.976,1437.117.861,1691.4,43.243,1862.172,139.949,1944.711c45.658,38.968,102.826,58.31,173.193,58.3q48.128,0,104.647-12.034c54.505-11.583,109.227-59.608,167.165-110.453,115.881-101.7,247.215-216.987,432.586-105.434,108.422,65.234,222.133,80.845,328.805,45.171,130.938-43.788,246.789-163.293,309.9-319.657,21.08-52.233,45.778-90.822,74-119.481q10.558-4.183,21.35-8.331,13.506-4.923,27.415-9.761,23.55-7.772,48.218-15.213,19.105-5.365,38.95-10.573,18.555-4.454,37.844-8.83,17.609-3.6,35.866-7.159,17.185-2.957,34.976-5.945c4.376-.631,8.752-1.256,13.182-1.893,6.786-.974,13.68-1.966,20.629-2.969q16.193-1.929,32.957-3.985,15.544-1.515,31.593-3.192,15.436-1.217,31.334-2.621,14.913-.929,30.24-2.074,14.7-.7,29.8-1.653c141.565-4.989,308.543-26.724,503.531-127.788C2824.493,1088.074,2898.437,964.343,2881.949,811.3ZM2174.3,1136.1c22.793-50.863,4.256-117.125-47.238-168.8-27.168-27.271-75.393-62.175-150.833-73.637-70.259-10.681-146.175,1.785-225.583,37.026-131.094,58.184-206.132,110.934-267.7,159.267q-7.564,5.941-14.847,11.7c-85.827,67.783-147.846,116.759-331.125,131-43.776,3.4-88,11.529-134.833,20.148-32.193,5.921-65.084,11.961-100.349,17.052-1.485.09-3.011.174-4.5.264,16.127-4.177,31.923-8.565,47.515-12.923,56.747-15.844,110.345-30.811,170.572-32.314,195.355-4.881,261.2-60.678,352.343-137.916q9.314-7.889,19-16.043c72.736-61.045,149.054-112.731,285.077-166.563,114.264-45.219,273.422-55.154,377.4,52.618,50.845,52.7,69.514,119.163,47.551,169.328-13.266,30.294-39.743,52.041-77.064,64.351C2151.447,1174.923,2166.907,1152.593,2174.3,1136.1Zm-79.714,58.689c24.079-11.541,41.967-28.683,52.185-50.941,22.462-48.957,3.973-114.42-46.012-162.891-32.392-31.4-154.734-125.594-369.323-19.024-126.345,62.752-197,113.705-253.767,154.644-112.881,81.41-173.866,125.384-520.565,149.7,15.586-2.723,30.883-5.518,45.994-8.295,46.685-8.589,90.78-16.7,134.286-20.082,184.878-14.354,247.42-63.744,333.98-132.11q7.285-5.761,14.834-11.691c70.843-55.623,143.284-103.878,266.588-158.6,112.347-49.853,268.68-66.719,370.538,35.511,49.931,50.118,68.054,114.072,46.162,162.921C2156.4,1163.148,2130.65,1183.686,2094.586,1194.788Zm106.979-66.376c22.823-52.125,3.745-120.858-48.585-175.1-27.734-28.743-76.991-66.13-154.187-81.013-71.516-13.789-148.567-4.658-228.943,27.151-136.69,54.091-213.405,106.053-286.532,167.429q-9.72,8.15-19.018,16.061c-90.311,76.534-155.57,131.833-349.061,136.666-60.883,1.527-114.787,16.578-171.853,32.512-24.313,6.792-49.12,13.668-74.936,19.625-1.256.066-2.482.138-3.745.2-3.432.18-6.786.4-10.176.607,14.78-5.187,29.308-10.687,43.65-16.133,59.248-22.5,120.575-45.862,195.2-44.576q7.555.127,14.876.12c195.571,0,267.327-64.291,357.579-145.165,6.978-6.251,14.071-12.617,21.356-19.066,76.216-67.476,157.006-122.98,303.6-174.54,176.9-62.217,314.319-4.947,383.93,69.406,51.855,55.383,71.1,124.5,49.053,176.1-13.879,32.464-42.484,56.014-83.122,69.364C2169.323,1174.646,2190.115,1154.577,2201.565,1128.412Zm27.06-7.64c22.883-53.519,3.234-124.873-50.045-181.783-40.609-43.373-95.09-73.944-157.554-88.412-72.754-16.848-150.8-10.915-231.978,17.635-147.4,51.843-228.666,107.676-305.339,175.567q-10.945,9.684-21.38,19.078c-91.646,82.125-163.907,147.131-368.854,143.7-75.627-1.226-137.453,22.24-197.158,44.918-20.322,7.718-41.005,15.562-62.265,22.42q-9.945.721-19.643,1.557c13.41-6.017,26.82-12.5,40.5-19.138,62.728-30.438,127.572-61.869,216.519-57.529,218.857,10.813,295.818-61.382,393.246-152.757q11.27-10.576,23.009-21.482c82.714-76.547,165.458-133.781,322.133-182.534,179.276-55.786,319.122,7.79,390.211,85.9,53.76,59.056,73.157,129.267,50.628,183.219-14.45,34.6-45.213,59.861-89.055,74.341C2193.5,1171.022,2216.459,1149.227,2228.625,1120.772Zm26.886-7.6c23.328-55.87,3.559-128.215-51.6-188.8-72.183-79.3-214.042-143.9-395.675-87.384-157.632,49.041-240.892,106.648-324.153,183.694q-11.784,10.91-23.039,21.506c-96.508,90.516-172.718,162.025-389.375,151.338-90.227-4.466-155.756,27.319-219.079,58.04-18.633,9.04-36.768,17.822-55.046,25.437l-2.2.216c12.346-6.96,24.722-14.6,37.3-22.384,57.805-35.752,123.3-76.222,216.813-69.087,231.064,17.786,311.927-61.009,414.32-160.751,7.958-7.748,16.049-15.634,24.362-23.616,89.728-86.194,174.239-145,340.67-190.528,181.482-49.631,323.714,20.208,396.318,102.122,54.926,61.971,74.954,135.019,52.263,190.636-15.081,36.96-48.14,64.207-95.577,79.876C2217.349,1167.9,2242.594,1144.118,2255.511,1113.175Zm26.772-7.561c23.46-57.5,3.071-132.645-53.2-196.13-73.662-83.1-217.883-153.995-401.655-103.715C1659.913,851.594,1574.837,910.8,1484.49,997.588q-12.469,11.982-24.379,23.64c-101.443,98.81-181.542,176.86-410.239,159.272-95.21-7.375-161.5,33.678-219.987,69.857-16.319,10.092-32.271,19.932-48.23,28.31q-13.254,1.47-26.014,3.144c11.883-7.868,23.977-16.716,36.611-25.954,60.167-44,128.293-93.876,235.278-83.147,243.4,24.458,328.162-60.871,435.5-168.871q12.532-12.614,25.588-25.618c94.915-94.128,184.115-156.784,359.219-198.54,183.5-43.752,328.138,32.326,402.292,118.123,56.14,64.958,76.805,140.946,53.928,198.324-12.214,30.637-40.855,67.3-107.021,87.432C2238.741,1166.863,2268.085,1140.4,2282.283,1105.613Zm26.676-7.531c23.61-59.212,2.6-137.279-54.836-203.728-75.176-86.975-221.718-164.117-407.516-119.806-176.3,42.039-266.131,105.14-361.714,199.923-8.734,8.661-17.239,17.227-25.606,25.642-54.271,54.6-101.137,101.762-165.4,133.138-70.578,34.46-155.065,45.327-265.83,34.207-108.933-10.988-177.984,39.569-238.921,84.132-16.024,11.721-31.172,22.769-46.054,31.965q-14.272,2.056-27.89,4.388c12.052-9.076,24.337-19.463,37.218-30.4,59.055-50.1,132.567-112.449,253.184-97.885,255.708,30.871,344.445-60.883,456.719-177.058,8.746-9.04,17.629-18.243,26.754-27.541,102.723-104.719,193.353-168.655,377.786-206.559,185.479-38.12,332.478,44.2,408.2,133.943,58.25,69.033,79.035,146.121,55.6,206.222-16.734,42.917-54.361,74.167-110.141,92.169C2273.261,1159.247,2297.742,1126.218,2308.959,1098.082ZM751.4,1287.8c-2.32.354-4.61.721-6.894,1.082l.282-.174C747,1288.394,749.192,1288.105,751.4,1287.8Zm-20.809,3.041c-.337.18-.667.354-1,.535-8.92,1.551-17.587,3.162-25.912,4.845.529-.361,1.058-.7,1.587-1.064Q717.936,1292.83,730.588,1290.84Zm1604.986-200.26c24.145-61.929,3.03-141.006-56.483-211.542-76.7-90.906-225.541-174.305-413.292-135.71-185.762,38.18-277.035,102.573-380.485,208.031-9.136,9.311-18.032,18.519-26.784,27.571-111.259,115.124-199.124,206.072-452.3,175.489-122.9-14.828-197.4,48.338-257.223,99.1-15.946,13.524-30.955,26.243-45.663,36.521q-15.165,2.813-29.411,5.993c12.629-10.477,25.5-22.943,39.088-36.13,60.564-58.785,135.933-131.923,270.651-113.284,268.181,37.158,360.758-61,477.931-185.257,9.13-9.677,18.4-19.517,27.932-29.464,110.88-115.8,202.628-180.791,396.348-214.577,187.619-32.74,340.316,60.155,414.091,149.631,59.5,72.171,80.9,152.276,57.246,214.283-17.539,45.982-58.268,79.558-118.9,98.888C2297.244,1156.879,2323.787,1120.8,2335.574,1090.58Zm-1890,398.169c2.3-3.594,4.773-7.279,7.345-11.018-.018.1-.024.2-.042.295Q448.985,1483.5,445.577,1488.749ZM446.7,1513.1c-.391,13.746,3.174,27.619,10.94,42.472,23.045,44.059,93.4,71.642,195.048,78.6-106.126-4.286-168.2-24.362-192.44-61.532C446.335,1551.309,442.157,1532.928,446.7,1513.1Zm-36.034,56.17c.968,27.661,16.626,46.391,39.845,66.016,38.12,32.217,112.3,27.763,206.234,22.1,12.833-.775,26.267-1.575,40.079-2.308-23.388,1.8-45.85,4.015-67.032,6.131-79.781,7.958-142.785,14.239-178.014-10.362-22.318-15.574-44.4-33.287-47.936-63.185-3.865-32.71,14.8-77.9,57.865-138.776a118.745,118.745,0,0,0-5.524,14.786C424.233,1507.292,409.7,1541.578,410.667,1569.275Zm245.761,82.84c-92.758,5.6-166,10-202.514-20.857-22.143-18.712-37.074-36.449-37.982-62.169-.685-19.7,7.387-43.572,24.662-72.3-11.817,19.986-17.948,37.651-18.76,53.478-1.461,28.419,14.558,48.867,30.432,65.12,39.106,40.062,125.534,38.463,235.3,34.9C676.894,1650.883,666.484,1651.508,656.428,1652.115ZM456.036,1611.7c-15.826-16.217-30.288-34.844-28.936-61.159q.676-13.091,6.846-28.395a80.361,80.361,0,0,0-1.827,8.944c-3.937,27.908,9.647,49.066,21.921,64.375,34.688,43.277,118.922,50.6,223.371,49.871C573.678,1648.6,492.407,1648.965,456.036,1611.7Zm2.116-19.529c-17.473-21.807-23.694-39.851-20.8-60.342a76.032,76.032,0,0,1,2.855-12.208c-2.212,18.339,2.849,36.311,15.628,55.912,31.2,47.833,116.807,62.217,208.007,64.6C567.126,1640.118,490,1631.9,458.152,1592.17Zm4.165-39.034c-8.313-15.893-11.607-30.547-10.044-45.129a106.535,106.535,0,0,0,7.207,27.625c23.3,56.819,107.43,85.791,197.717,93.6C555.255,1622.975,484.857,1596.233,462.317,1553.136Zm2.05-19.5a100.75,100.75,0,0,1-7.459-43.313,101.879,101.879,0,0,0,4.442,25.371c16.421,52.846,85.905,92.667,174.516,106.36C548.217,1610.972,482.946,1578.934,464.367,1533.632Zm-2.242-44.546c.337,2.218.613,4.436,1.106,6.648,11.937,53.688,73.968,97.74,152.432,116.861-76.12-16.259-135.025-52.576-149.283-98.48A96.207,96.207,0,0,1,462.125,1489.086Zm6.257,5.512a91.05,91.05,0,0,1-1.689-10.693c13.6,58.064,82,107.676,162.909,126.466C547.1,1593.625,480.554,1549.326,468.382,1494.6Zm1.977-19.535c-.018-.138-.018-.271-.036-.4,3.925,14.87,11.156,29.765,21.753,44.245,25.684,35.109,66.833,62.908,112.665,79.2C534.007,1575.1,478,1528.246,470.36,1475.063Zm1.893-23.544q27.544-35.154,69.087-78.157,12.163-7.628,26.718-15.159c-40.771,35.95-72.441,67.32-95.745,94.964C472.3,1452.613,472.271,1452.066,472.253,1451.519Zm101.924-118.67c-2.014,1.972-4.033,3.949-6.011,5.9a307.787,307.787,0,0,0-33.756,18.645c2.122-2.458,4.268-4.923,6.444-7.417A296.353,296.353,0,0,1,574.177,1332.849Zm-23.256,5.674c.343-.391.673-.769,1.016-1.154.559-.042,1.106-.174,1.665-.24C552.713,1337.592,551.8,1338.054,550.921,1338.523Zm48.807-7.64c-.577.487-1.124.962-1.695,1.442-10.333,4.142-19.871,8.385-28.7,12.689.685-.679,1.352-1.346,2.044-2.032Q584.4,1336.816,599.729,1330.884Zm-17.545,1.509c.355-.349.7-.685,1.058-1.034.679-.048,1.346-.18,2.02-.258C584.233,1331.526,583.187,1331.959,582.183,1332.392ZM556.265,1350.6c-.818.823-1.623,1.635-2.44,2.452a277.378,277.378,0,0,0-34.928,22.54l1.791-2.134A253.126,253.126,0,0,1,556.265,1350.6Zm-39.316,19.126a168.517,168.517,0,0,0-28.533,27.77c9.082-13.753,21.38-26,36.239-36.84Q520.733,1365.235,516.949,1369.725Zm3.083,18.333q-27.409,29.329-47.647,54.541c.018-.24.054-.475.072-.709a123.4,123.4,0,0,1,6-11.042c1.4-2.284,2.963-4.622,4.628-6.984C492.01,1412.371,504,1400.265,520.032,1388.058Zm66.19-38.673q10.423-4.779,21.981-9.437c-33.943,24.974-62.608,47.773-86.356,68.727-.583.439-1.178.883-1.755,1.322Q548.6,1381.893,586.223,1349.385Zm40.9-16.674q8.5-3.092,17.6-6.095-37.191,22.7-67.206,43.169Q600.36,1352.023,627.12,1332.711Zm-12.761-7.213c.2-.072.415-.138.613-.2.8-.06,1.587-.193,2.38-.282-1.461.517-2.849,1.046-4.28,1.569C613.505,1326.213,613.926,1325.858,614.359,1325.5Zm-.4-5.433c2.128-1.365,4.262-2.819,6.39-4.394q14.281-4.472,29.158-8.307-2.939,1.812-5.879,3.4-15.58,4.481-29.38,9.262C614.154,1320.04,614.058,1320.058,613.962,1320.064Zm52.113-.181c3.853-1.148,7.748-2.3,11.745-3.426q-21.2,10.6-40.332,20.8Q651.247,1328.741,666.075,1319.884Zm-4.989-13.909c1.028-.733,2.056-1.467,3.089-2.236q13.524-3.192,27.259-5.933c-.854.517-1.707,1.034-2.567,1.533Q674.361,1302.54,661.086,1305.975Zm1701.062-222.86c24.337-63.8,2.621-145.869-58.106-219.518-74.677-90.57-229.231-184.583-419.069-151.477-195.162,34.045-287.571,99.5-399.251,216.128q-14.3,14.94-27.95,29.489c-116.133,123.148-207.8,220.413-473.375,183.652-137.237-19.024-213.663,55.148-275.051,114.727-16.662,16.169-32.218,31.238-47.437,42.718-10.657,2.561-20.942,5.265-30.787,8.138,13.524-11.841,27.463-27.12,42.875-44.059,58.515-64.279,138.65-152.324,287.758-129.345,43.9,6.768,83.261,9.924,118.952,9.918,192.458-.012,277.209-91.8,380.167-203.367,9.509-10.308,19.18-20.791,29.116-31.388,116.872-124.7,213.134-193.371,414.915-222.607,113.176-16.4,229.063,11.6,326.269,78.843,87.053,60.221,146.722,143.722,159.615,223.365,14.961,92.379-34.73,160.751-137.447,192.289C2320.457,1155.695,2349.657,1115.855,2362.148,1083.115Zm2.308,34.808c28.725-35.4,39.635-80.508,31.55-130.427-13.122-81.031-73.619-165.842-161.827-226.863-98.3-68.005-215.5-96.328-330.019-79.72-203.331,29.459-300.3,98.624-418.016,224.218-9.942,10.609-19.619,21.1-29.14,31.412-120.99,131.1-216.561,234.671-494.443,191.809-151.885-23.418-233.138,65.835-292.464,131-19.168,21.055-36,39.515-52.348,51.686q-18.528,5.906-34.892,12.6c16.541-12.821,33.263-33.432,52.45-57.1,59.38-73.253,140.729-173.608,304.534-146.025,293.131,49.282,393.384-61.436,520.277-201.624q14.859-16.418,30.324-33.324c125.66-136.66,222.583-206.03,433.494-230.638,240.225-28,466.373,153.941,493.445,323.3,15.52,97.085-38.15,169.563-148.188,202.76C2310.389,1166.333,2342.306,1145.23,2364.456,1117.923Zm58.136-140.513c-13.356-83.549-75.351-172.22-165.824-237.184-99.995-71.8-218.418-103.944-333.433-90.528-212.576,24.806-310.214,94.675-436.776,232.309q-15.526,16.887-30.348,33.353c-125.817,138.992-225.192,248.766-515.493,199.959-166.906-28.028-249.307,73.649-309.511,147.906-30.595,37.741-54.758,67.555-80.664,68.937l-1.1.054-.733.836c-4.057,4.568-8,9.058-11.883,13.506-29.17,17.834-49.691,38.5-60.732,61.79a95.379,95.379,0,0,0-7.291,21.861c-51.933,70.073-74.533,121.368-70.2,158.058,3.787,32.062,26.856,50.628,50.154,66.894,19.8,13.824,47.425,18.375,81.3,18.375,29.128,0,62.878-3.366,100.253-7.093,24.35-2.422,50.352-5.025,77.581-6.924-34.153,3.15-66.419,7.8-96.46,12.184-71.107,10.375-127.283,18.567-161.791-1.268-27.391-15.748-52.492-32.488-58.755-64.062-10.194-51.4,31.039-134.995,129.748-263.006,25.245-2.29,47.821-33.365,76.276-72.55,59.969-82.581,142.094-195.685,321.021-163.336,305.634,55.227,409.685-61.712,541.4-209.769,10.314-11.589,20.8-23.376,31.562-35.283,132.068-146.1,233.4-219.079,452.079-238.674,243.9-21.879,473.586,170.512,501.019,344.373,16.223,102.838-42.724,180.027-162.356,214.463C2387.116,1147.159,2438.063,1074.2,2422.592,977.41Zm26.61-10.1C2421.426,791.24,2189.237,596.39,1942.5,618.5,1722.077,638.255,1619.99,711.76,1486.979,858.9q-16.157,17.888-31.593,35.319C1324.773,1041.04,1221.6,1157.023,918.869,1102.3c-182.137-32.915-268.86,86.44-326.227,165.427-28.094,38.679-50.286,69.232-73.511,70.476l-1.208.06-.733.956c-100.235,129.838-142.01,215.058-131.473,268.193,6.7,33.738,32.819,51.235,61.3,67.609,16.271,9.359,36.792,12.8,61.033,12.8,29.519,0,64.549-5.109,104.154-10.891,31.19-4.55,64.814-9.395,100.421-12.526-40.831,4.532-78.891,11.967-114.192,18.88-65.21,12.785-116.71,22.877-150.917,6.8-33-15.526-61.075-31.105-70.338-64.712-14.594-52.931,21.05-140.633,112.166-275.983,22.847-2.368,43.476-33.93,69.454-73.679,56.9-87.047,142.9-218.61,337.232-181.266,56.976,10.946,107.177,15.977,152.036,15.977,205.633-.018,298.4-105.9,410.461-233.86q16.085-18.366,32.824-37.279c141.463-158.918,242.984-232.255,470.665-246.717,114.739-7.291,234.256,31.977,336.667,110.543,94.068,72.171,158.353,167.465,171.955,254.9,17.179,110.423-45.687,190.552-177.154,226.5C2408.965,1147.863,2465.412,1070.09,2449.2,967.306Zm26.634-10.11C2447.746,776.652,2212.15,571.44,1961.67,587.3c-228.125,14.492-334.7,91.67-474.265,248.472q-16.815,18.9-32.855,37.315c-135.4,154.6-242.334,276.7-557.525,216.17-197.9-38.012-284.975,95.342-342.648,183.562-25.672,39.274-45.946,70.3-66.659,71.4l-1.316.066-.739,1.094C393.1,1482.69,357.009,1572.106,372.084,1626.768c9.846,35.716,40.23,52.588,73.175,68.077,13.362,6.287,29.02,8.788,46.848,8.788,29.9,0,65.89-7.057,107.334-15.177,39.094-7.664,81.578-15.971,127.428-20.214-50.911,5.842-97.536,17.377-137.742,27.355-61.171,15.177-109.48,27.168-143.741,14.125-37.717-14.347-69.959-29.14-82.545-65.054-18.892-53.928,12.238-148.555,95.18-289.285,20.545-2.4,38.4-32.668,62.908-74.184,56.958-96.5,143.025-242.341,353.2-199.8,330.717,66.93,442.27-62.325,583.546-225.961q16.716-19.367,34.123-39.3c148.249-168.9,254.08-245.767,489.25-254.759,113.5-4.334,237.49,39.695,340.136,120.828,96.472,76.252,162.314,175.58,176.126,265.7,10.243,66.839-.589,186.591-188.232,237.706-2.236.607-4.4,1.214-6.63,1.821C2429.847,1149.942,2492.893,1066.808,2475.835,957.2ZM723.562,1606.884c-83.261,11.312-180.941-27.824-227.23-91.093-12.244-16.734-19.829-34.015-22.757-51.091,4.111-4.869,8.535-9.846,13.35-14.961,18.832-19.4,44.2-40.47,76.42-63.479,36.972-23.682,83.585-49.1,140.381-76.661,3.985-1,8.061-1.978,12.178-2.951a153.225,153.225,0,0,0,30.565-6.912c7.994-1.533,16.127-3.042,24.572-4.478,8.271-1.406,16.391-3.168,24.446-5.073,2.3-.306,4.532-.637,6.864-.938,14.895-1.923,29.3-4.412,43.4-7.219q29.456-2.957,56.627-6.918c397.213-23.6,458.949-68.108,578.376-154.241,56.615-40.831,127.067-91.646,253.034-154.2,211.47-105.026,331.528-12.713,363.3,18.086,48.38,46.92,66.418,109.972,44.888,156.9-13.374,29.152-39.7,48.873-76.493,58.442q-4.183.279-8.343.619c-.848.012-1.653.072-2.507.078-11.18.114-22.179.625-33.035,1.443-.751-.006-1.509-.024-2.26-.024-10.458,0-20.755.4-30.919,1.106q-16.743-.28-32.969.824c-162.007-4.141-286.393,105.037-396.678,201.942-48.284,42.424-93.755,82.341-139.028,111.012a458.061,458.061,0,0,1-50.37,14.678c-9.5,1.983-19.006,3.655-28.533,4.749-5.019.577-10.02,1.232-15,1.935-.144.006-.295.018-.439.024-9.112.379-18.116,1.028-27.048,1.833-9.052-.066-18.008.06-26.838.433-9.215-.5-18.267-.7-27.211-.721-8.848-.854-17.581-1.509-26.159-1.893q-14.119-1.957-27.721-3.071-13.38-2.326-26.243-3.829c-121.278-25.419-207.977,5.157-292.218,34.886C825.311,1582.571,777.075,1599.593,723.562,1606.884Zm851.4-197.435c98.258-81.974,207.358-172.935,343.087-195.571-131.1,30.306-237.646,114.6-334.022,190.919-21.53,17.053-42.5,33.654-63.107,49.192C1538.617,1439.762,1556.583,1424.783,1574.958,1409.45Zm-77.568,56.4c21.494-17.732,43.055-36.66,64.856-55.816,94.483-83.014,199.358-175.081,329.088-196.25-125.017,29.26-227.236,114.432-319.753,191.622C1546.184,1426.586,1521.577,1447.107,1497.389,1465.849Zm89.915-56.916c102.3-81.007,216.1-171.041,358.348-195.175-137.832,31.5-249.127,115.016-349.668,190.54-17.689,13.29-34.995,26.291-52.023,38.7C1558.194,1431.984,1572.614,1420.564,1587.3,1408.933Zm11.847-.409c106.378-79.913,224.844-168.848,373.862-194.9-144.841,33.071-260.962,115.749-365.747,190.378q-19.673,14.01-38.757,27.463Q1583.664,1420.2,1599.151,1408.524Zm11.174-.229c110.892-78.981,234.557-166.972,391.341-195.072-152.979,34.868-274.565,116.849-384.1,190.769q-11.387,7.691-22.564,15.207Q1602.622,1413.781,1610.325,1408.3Zm422.044-196.022c-162.9,36.954-290.865,118.676-405.941,192.205l-2.645,1.689C1739.045,1328.4,1867.8,1242.261,2032.369,1212.274Zm29.458-.721c-162.9,37.441-291.46,111.415-406.548,180.779C1769.958,1319.421,1898.624,1242.478,2061.827,1211.552Zm32.3-1.473c-161.76,37.537-290.264,103.5-404.654,167.934C1803.582,1310.267,1932.151,1241.7,2094.129,1210.08Zm-816.87,349.7c2.735.33,5.452.565,8.169.769l-.252.09c-2.939-.108-5.9-.313-8.854-.577C1276.633,1559.965,1276.946,1559.874,1277.258,1559.784Zm-5.169-6.071c.138-.03.276-.066.421-.1,1.551.271,3.09.463,4.628.691-.084.024-.168.048-.252.078C1275.293,1554.188,1273.694,1553.96,1272.089,1553.713Zm-12.869,2.987c1.978.439,3.955.823,5.927,1.19-.559.174-1.112.355-1.671.529-2.11-.349-4.226-.775-6.347-1.208C1257.826,1557.043,1258.523,1556.869,1259.22,1556.7Zm-2.146-5.9c.319-.048.637-.1.956-.15.661.144,1.316.282,1.978.427-.307.072-.607.15-.908.222C1258.427,1551.141,1257.748,1550.96,1257.074,1550.8Zm-8.83,3.149c-.782.2-1.563.4-2.344.6-1.37-.373-2.741-.739-4.117-1.148.884-.162,1.767-.324,2.651-.481.727.21,1.443.391,2.176.6C1247.157,1553.683,1247.7,1553.8,1248.245,1553.948Zm-15.5-4.255c-.523.1-1.04.21-1.557.313-.625-.216-1.232-.409-1.857-.625.5-.06,1-.108,1.509-.168C1231.481,1549.38,1232.106,1549.524,1232.749,1549.692ZM873.71,1571.078c69.292-24.452,140.278-49.45,230.974-42.929-75.928,1.166-139.593,21.584-201.889,41.606-33.654,10.814-68.456,22-104.268,29.705-18.171,3.913-42.334,8.788-68.1,11.883-.98.114-1.965.15-2.945.252C780.231,1604.005,827.758,1587.3,873.71,1571.078Zm-74.07,33.54c36.07-7.76,70.993-18.988,104.773-29.843,69.087-22.21,139.87-44.93,227.32-40.921-72.3,2.927-134.658,21.572-195.673,39.845-43.464,13.019-84.523,25.311-128.936,32.3l-6.468,1.022c-20.473,3.234-41.636,6.582-63.377,8.782-.2.018-.4.03-.6.048C760.528,1612.733,782.689,1608.267,799.64,1604.618Zm1.845,7.616,6.468-1.022c44.762-7.045,87.907-19.968,129.627-32.458,68.318-20.455,138.331-41.414,222.139-39.935-68.348,4.67-128.882,21.933-188.058,38.9-52.486,15.051-102.062,29.266-155.936,34.838-9.022.926-18.086,1.977-27.223,3.035-13.139,1.521-26.706,3.047-40.392,4.286C766.364,1617.734,784.186,1614.963,801.485,1612.234Zm-12.376,8.6c9.112-1.052,18.152-2.1,27.157-3.029,54.331-5.614,104.13-19.9,156.844-35.013,66.262-19,134.214-38.385,212.936-39.815-63.149,6.528-120.533,22.678-176.643,38.547-62.193,17.588-120.942,34.2-185.095,37.591-14.143.739-28.647,1.972-42.676,3.162-6.948.589-14.005,1.13-21.044,1.677C770.229,1622.963,779.792,1621.911,789.109,1620.829Zm-7.032,6.708c14.63-1.244,28.449-2.416,42.508-3.156,64.748-3.414,123.767-20.112,186.255-37.783,60.913-17.227,123.346-34.808,192.951-39.887.559.169,1.136.355,1.695.523-54.884,8.385-106.162,23.105-156.369,37.531C976.6,1605.6,908.1,1625.277,832.885,1625.68c-18.525.1-36.654,1.208-55.846,2.374-1.827.114-3.685.217-5.518.324C775.026,1628.09,778.59,1627.838,782.076,1627.537Zm50.839,3.42c75.946-.4,144.786-20.184,217.661-41.119,53.369-15.327,107.947-30.974,166.714-38.937,1.178.385,2.386.812,3.57,1.2-44.96,9.4-88.045,22.306-130.3,34.976-83.339,24.993-162.037,48.663-249.1,45.177-18.014-.7-36.329-.21-54.319.487C802.687,1631.811,817.708,1631.036,832.915,1630.957Zm8.337,6.57c87.907,3.462,167.05-20.268,250.822-45.405,44.918-13.47,90.786-27.2,138.788-36.665,1.737.607,3.462,1.094,5.193,1.647-34.94,9.256-69.051,20.178-102.579,30.919-94.555,30.294-183.868,58.917-283.448,50.8-13.007-1.064-26.123-1.413-39.232-1.413-2.639,0-5.265.06-7.9.09C815.748,1637.148,828.443,1637.028,841.252,1637.527Zm8.343,6.552q17.735,1.443,35.037,1.419c86.765-.006,166.557-25.564,250.449-52.444,36.191-11.6,73.061-23.394,110.886-33.065,2.344.607,4.688,1.25,7.021,1.761-25.461,8.114-50.622,16.836-75.4,25.473-101.341,35.331-206.162,71.87-319,58.184-10.789-1.31-21.488-2.05-32.169-2.482C834.123,1643.123,841.835,1643.448,849.595,1644.079Zm7.015,6.414c.445.054.889.09,1.34.144a416.054,416.054,0,0,0,50.075,2.981c95.114,0,184.475-31.148,271.3-61.418,27.794-9.689,56.056-19.511,84.679-28.413,3.156.481,6.3.848,9.437,1.154-17.058,6.323-34,12.827-50.742,19.264-112.395,43.223-228.606,87.949-355.559,67.777C863.618,1651.424,860.114,1650.937,856.609,1650.492Zm16.968,7.706a414.017,414.017,0,0,0,57.541,4.051c103.342-.006,199.743-37.074,293.468-73.121,20.431-7.856,41.161-15.8,62.019-23.4,4.147.09,8.277.006,12.394-.192q-15.03,6.375-30.39,12.977c-123.442,52.912-251.086,107.628-392.933,80.051C874.978,1658.432,874.281,1658.33,873.578,1658.2Zm397.111-74.834c15.634-6.7,30.883-13.182,46.012-19.5,5.9-.859,11.775-2.044,17.623-3.444-6.293,3.017-12.617,6.059-19.048,9.154-132.554,63.822-269.587,129.711-424.76,96.893C1027.621,1687.524,1151.105,1634.618,1270.689,1583.364Zm46.878-9.034c30.15-14.516,58.629-28.227,87.162-40.687,1.34-.583,2.693-1.2,4.033-1.791-15.015,7.976-30.15,16.2-46.012,24.836-135.284,73.662-288.245,156.874-458.769,117.726C1055.408,1700.453,1194.358,1633.65,1317.566,1574.33Zm47.713-13.007c19.126-10.417,37.194-20.256,55.256-29.735l10.495-5.506,5.806-3.047c-1.088.667-2.194,1.322-3.282,2q-10.972,6.771-22.21,13.753c-136.8,84.877-306.139,189.9-493.818,143.861C1084.007,1714.35,1233.037,1633.325,1365.28,1561.323Zm-354.447,137.886c151.921-.012,288.912-84.986,403.3-155.942q11.225-6.961,22.2-13.741,13.335-8.223,26.892-16.247c-4.742,3.264-9.485,6.534-14.173,9.876-124.494,88.73-310.472,221.231-517.218,168.1A395.709,395.709,0,0,0,1010.833,1699.209Zm17.8,9.563c169.04-.018,318.13-106.246,423.462-181.32q17.8-12.686,36.125-24.6c-7.97,5.975-15.874,12.088-23.688,18.435-146.494,119.055-321.652,231.641-518.089,178.771A392.6,392.6,0,0,0,1028.636,1708.772Zm439.228-183.4q21.648-17.59,44.149-33.269c-10.843,8.661-21.506,17.714-31.965,27.3-188.1,172.526-358.69,234.761-520.253,189.458C1152.482,1753.071,1323.962,1642.336,1467.865,1525.373Zm15.754-2.08a608.937,608.937,0,0,1,49.685-40.945c-12.875,10.922-25.449,22.588-37.723,35.187-123.629,126.9-311.344,260.048-520.343,200.74C1133.644,1755.367,1300.538,1691.221,1483.619,1523.293Zm15.742-2.074a529.867,529.867,0,0,1,54.794-48.969,491.564,491.564,0,0,0-43.037,43.415c-52.8,60.246-138.145,141.986-244.841,189.242-93.623,41.456-186.525,48.9-276.824,22.546C1194.569,1776.766,1377.764,1646.032,1499.361,1521.219Zm-230.944,188.515c107.574-47.647,193.516-129.94,246.668-190.594a478.146,478.146,0,0,1,60.005-57.655,456.66,456.66,0,0,0-48.422,52.305c-50.5,63.672-133.991,150.136-245.033,200.5-93.443,42.37-186.675,49.805-277.9,22.564C1090.276,1758.336,1179.031,1749.315,1268.417,1709.734Zm-252.547,36.052c88.1,22.967,177.936,14.131,267.94-26.694,112.01-50.8,196.136-137.9,246.987-202.027a441.276,441.276,0,0,1,63.8-65.679,433.786,433.786,0,0,0-52.366,60.522C1425.735,1673.465,1230.465,1811.754,1015.87,1745.786Zm530.639-230.8c21.116-29.29,43.626-53.544,67.627-73.986a414.884,414.884,0,0,0-56.333,69.015c-107.454,163.234-305.508,315.317-528.668,245.027C1240.479,1811.267,1431.566,1674.415,1546.509,1514.986Zm15.7-2.062c21.711-32.981,45.1-59.735,70.313-81.722-21.11,21.194-40.789,46.5-59.14,76.931-63.4,105.134-150.737,188.382-245.929,234.418-92.331,44.648-189.013,52.077-283.16,22.42C1263.319,1823.709,1456.366,1673.724,1562.209,1512.925ZM1329.75,1747.3c96.1-46.469,184.223-130.439,248.141-236.444,22.324-37.02,46.715-66.292,73.283-89.807-22.444,22.925-43.175,50.827-62.217,85.2-60.246,108.728-150.016,198.306-246.3,245.773-93.088,45.886-190.955,53.117-286.682,21.915C1147.2,1799.294,1240.473,1790.464,1329.75,1747.3Zm15.249,9.443c97.229-47.93,187.829-138.3,248.58-247.949,22.625-40.837,47.689-72.472,75.3-97.314-23.466,24.433-44.894,54.794-64.321,92.86-71.011,139.142-186.79,244.781-309.709,282.589-75.585,23.244-151.921,21.8-227.789-4.057C1160.031,1809.891,1254.724,1801.26,1345,1756.744Zm-48.6,35.223c124.254-38.21,241.211-144.84,312.859-285.227,22.889-44.846,48.633-78.891,77.322-105-24.524,25.9-46.655,58.743-66.425,100.7-68.108,144.564-183.58,254.536-308.9,294.171-76.871,24.314-154.644,22.787-232.092-4.37C1151.532,1814.122,1224.286,1814.158,1296.4,1791.967Zm16.445,9.683c126.694-40.074,243.357-151.086,312.077-296.954,22.973-48.765,49.258-85.016,78.867-112.262-25.413,27.223-48.1,62.367-68.036,108.109-65.228,149.7-180.238,263.859-307.641,305.357-75.032,24.44-151.1,23.887-227.127-1.22C1171.71,1824.785,1242.63,1823.854,1312.842,1801.65Zm338.506-303.019c-62.536,154.957-177.178,273.32-306.668,316.633-75.116,25.131-153.8,24.283-231.641-1.635,72.718,20.936,146.181,20.256,216.7-2.711,128.816-41.961,245.022-157.2,310.845-308.272,22.156-50.839,47.815-88.412,76.949-116.416.234-.1.475-.192.709-.283C1693.033,1414.066,1670.709,1450.671,1651.348,1498.631Zm160.691-177.894a252.609,252.609,0,0,0-34.6,16.6c-2.092,1.034-4.147,2.164-6.215,3.258q-22.378,11.162-43.962,22.426c112.851-61.911,240.544-122.391,400.008-154.734C2006.45,1236.846,1903.835,1277.232,1812.039,1320.737Zm49.907-14.726c-3.564.757-7.117,1.551-10.621,2.4,91.339-40.975,193.624-77.965,313.478-103.114C2050.389,1233,1950.568,1268.45,1861.946,1306.011Zm30.961-5.416q-3.3.46-6.558.968c91.556-37.6,194.856-72.55,313.436-98.961A2524.588,2524.588,0,0,0,1892.908,1300.6Zm21.2-2.531a2532.506,2532.506,0,0,1,326.221-99.856c-122.3,31.941-228.215,65.391-322.1,99.466C1916.86,1297.807,1915.478,1297.927,1914.107,1298.065Zm24.254-2.014c100.247-35.7,214.036-70.65,346.531-103.805l.126-.036c-129.988,35.758-243.032,69.737-343.411,103.613C1940.519,1295.895,1939.449,1295.979,1938.361,1296.051Zm24.638-1.3-1.833.072c102.026-33.943,216.969-68.083,349.3-104.124,142-38.679,210.208-125.192,192.055-243.6-14.011-91.405-80.574-191.983-178.068-269.04-103.619-81.9-228.973-126.352-343.609-121.964-237.111,9.07-343.718,86.47-493.012,256.55-11.655,13.278-23,26.417-34.153,39.334-140.158,162.338-250.888,290.541-578.5,224.243-213.85-43.253-301.066,104.509-358.787,202.3-23.328,39.526-41.757,70.74-60.089,71.72l-1.413.072-.721,1.22c-85.467,144.768-116.067,238.47-96.3,294.874,13.332,38.054,46.673,53.423,85.647,68.252,10.915,4.147,23.045,5.9,36.407,5.9,30.48,0,67.332-9.142,110.477-19.847,41.57-10.308,90.011-22.318,142.905-27.884-56.134,7.153-107.081,22.414-150.809,35.565-58.448,17.569-104.6,31.454-139.221,21-42.49-12.833-78.987-26.592-95.252-65.09-23.58-55.8,2.164-154.9,78.693-302.917,18.4-2.542,34.514-32.728,56.6-74.076,53.315-99.826,142.52-266.918,368.915-218.959,343.183,72.694,458.541-62.65,604.571-234.016q17.356-20.376,35.445-41.354c155.173-179.048,265.314-259.483,507.835-262.807,114.048-1.593,239.263,46.193,343.646,131.01,98.9,80.375,166.311,183.784,180.316,276.626,17.756,117.708-49.547,205.17-189.5,246.284q-41.177,12.1-80.1,23.484C2145.965,1239.358,2049.656,1267.573,1963,1294.753Zm19.9-.661h-.024c81.848-25.419,172.141-51.885,273.05-81.445q38.95-11.405,80.1-23.49c192.68-56.6,203.77-182.263,193.227-252.132-14.2-94.11-82.3-198.757-182.2-279.938C2241.716,571.5,2115.4,523.378,2000,524.893c-244.541,3.348-355.511,84.343-511.754,264.623q-18.158,20.953-35.469,41.39c-144.895,170.026-259.357,304.305-599.468,232.273-230.235-48.8-320.655,120.5-374.661,221.64-21.056,39.43-37.693,70.578-53.772,71.438l-1.509.078-.7,1.34c-77.809,150.208-103.817,251.176-79.522,308.681,18.555,43.914,62.926,57.318,98.588,68.084a97.55,97.55,0,0,0,28.329,3.835c31.358,0,69.081-11.342,113.933-24.83,44.924-13.506,97.464-29.29,155.359-36.07-60.5,8.457-114.931,27.661-161.538,44.113-54.433,19.216-101.425,35.83-136.666,27.589-47.25-11.024-88.021-23.508-108.343-64.8-28.443-57.787-7.97-161.46,62.566-316.9,16.331-2.615,30.078-31.027,50.544-73.343C498.8,1184.709,587.274,1001.706,830.312,1055.3c355.727,78.44,474.812-62.993,625.573-242.04q18.014-21.4,36.792-43.44C1658.1,576.7,1767.818,496.305,2019.109,498.974c114.534,1.172,241.078,52.606,347.186,141.1,101.353,84.535,170.332,192.079,184.506,287.68,17.8,120.034-49.968,210.538-190.817,254.825-113.128,35.572-214.433,64.688-303.819,90.371Q2018.352,1283.844,1982.894,1294.092Zm36.749-5.133c12.478-3.594,25.095-7.225,37.988-10.927,89.409-25.7,190.757-54.818,303.95-90.413,143.615-45.159,212.672-137.718,194.448-260.631-14.36-96.845-84.024-205.609-186.345-290.956C2262.658,546.765,2134.9,494.893,2019.169,493.7c-126.742-1.274-220.474,19.03-303.428,65.92-80.358,45.429-148.892,115.514-227.062,206.781-12.568,14.672-24.794,29.194-36.816,43.47-149.619,177.683-267.79,318.034-620.41,240.285-247.113-54.505-336.715,130.86-390.277,241.583-18.862,39-33.762,69.8-47.713,70.548l-1.6.084-.667,1.461c-71.738,157.734-92.391,263.312-63.125,322.776,23.081,46.9,74.407,58.869,111.878,67.615a94.069,94.069,0,0,0,21.338,2.29c33.167,0,73.223-14.137,118.285-30.042,48.158-16.992,104.725-36.888,167.591-44.72-64.982,9.569-123.034,32.969-172.514,52.991-53.417,21.608-99.55,40.272-135.59,34.045-50.039-8.638-97.007-20.046-121.717-64.225-33.468-59.831-18.194-168.168,46.715-331.185,14.414-2.8,26.61-30.637,44.714-71.967,48.765-111.325,139.551-318.569,399.648-259.135,72.892,16.65,136.125,24.229,191.947,24.229,226.172-.018,329.9-124.518,454.6-274.258q18.681-22.432,38.162-45.549c172.713-203.812,286.544-287.547,545.029-278.91,256.526,8.643,511.051,254.639,539.488,449.969,17.815,122.4-50.43,215.918-192.181,263.324C2246.086,1227.691,2126.112,1260.4,2019.644,1288.959Zm38.24-4.833c97.229-26.285,205.573-56.687,329.25-98.047,144.45-48.314,213.958-143.885,195.734-269.095-31.6-217.1-306.409-446.459-544.531-454.477C1777.73,453.7,1663,538.086,1489.107,743.274c-13.043,15.388-25.72,30.619-38.186,45.586-154.319,185.3-276.217,331.678-641.315,248.261-264.412-60.4-356.274,149.439-405.652,262.158-16.74,38.21-29.964,68.4-41.895,69.033l-1.683.09-.625,1.569c-66.022,165.391-81.4,275.676-47,337.16,25.852,46.21,74.076,57.992,125.426,66.851a92.713,92.713,0,0,0,15.778,1.286c34.58,0,75.873-16.7,122.691-35.644,51.506-20.833,112.323-45.387,180.478-53.916-69.941,10.326-131.887,38.4-184.475,62.325-52.9,24.055-98.558,44.816-135.656,40.458-52.305-6.2-105.825-16.187-135.3-63.377-38.661-61.91-28.509-175.02,31.051-345.773,12.556-2.885,22.745-28.6,39.13-69.947,47.869-120.8,137-345.659,414.656-280.172,76.727,18.093,143.085,26.309,201.516,26.3,231.588-.018,338.074-129.141,465.982-284.308q19.358-23.487,39.545-47.683c87.492-104.274,158.527-178.441,242.167-225.925,87.763-49.829,186.892-68.643,321.46-61.033,115.695,6.552,244.884,65.265,354.459,161.082,106.33,92.986,178.435,208.921,192.878,310.118,12.6,88.274-10.765,207.076-193.606,271.775C2277.222,1226.874,2161.605,1258.154,2057.884,1284.126Zm35.848-3.63c94.862-24.307,199.707-53.76,318.96-95.955,145.285-51.41,215.275-149.962,197.074-277.5-31.677-221.94-310.388-462.021-552.26-475.719-135.626-7.694-235.675,11.348-324.369,61.706-84.33,47.881-155.726,122.4-243.6,227.128-13.518,16.109-26.657,32.049-39.575,47.719-159.02,192.9-284.62,345.269-662.22,256.219-282.066-66.509-372.317,161.088-420.769,283.364-14.7,37.068-26.3,66.346-36.329,66.881l-1.767.09-.583,1.671c-60.588,173.193-70.746,288.269-31.069,351.814,30.7,49.162,85.569,59.47,139.148,65.812a92.038,92.038,0,0,0,10.922.631c36.251,0,78.891-19.391,127.536-41.516,53.9-24.518,117.666-53.5,189.657-62.884-73.493,11.252-138.175,43.776-192.963,71.371-52.786,26.592-98.4,49.571-136.6,46.884-56.453-3.943-114.456-12-149.006-62.259-44-64.014-38.932-181.993,15.5-360.644,10.843-3.12,19.667-27.794,33.78-67.248,22.174-62.013,55.689-155.714,120.611-224.675,77.37-82.173,181.266-108.145,308.825-77.2,393.33,95.426,523.559-64.038,688.433-265.945,13.362-16.361,26.958-33.017,40.951-49.841,180.869-217.559,297.3-317.577,582.224-295.013,116.338,9.214,246.9,71.54,358.192,171,110.471,98.726,182.3,215.906,197.05,321.5,12.574,89.963-11.072,211.6-195.091,280.172C2307.3,1226.152,2194.989,1256.579,2093.732,1280.5Zm38.7-3.9c91.531-22.582,192.169-51.26,305.808-93.6,187.3-69.8,211.313-193.966,198.475-285.847-14.919-106.8-87.366-225.156-198.757-324.7-112.142-100.217-243.832-163.023-361.3-172.328-287.4-22.745-404.63,77.923-586.7,296.9q-21,25.263-40.975,49.877c-163.7,200.464-293.005,358.817-683.1,264.154-300.416-72.874-391.768,182.486-435.658,305.219-12.22,34.147-22.763,63.642-31.009,64.086l-1.845.1-.541,1.761c-55.371,181.151-60.366,301.1-15.267,366.709,35.878,52.2,97.777,60.678,152.979,64.537,2.17.15,4.346.223,6.552.223,38.192,0,82.233-22.186,132.8-47.653,55.713-28.064,121.705-61.315,196.641-71.666-76.252,12.292-142.965,49.053-199.43,80.183-52.973,29.2-98.817,54.409-138.253,53.375-57.835-1.509-122.883-7.592-162.795-60.937-49.468-66.118-49.468-189.031.018-375.725,8.752-2.969,15.466-22.75,28.677-63.87,42.009-130.673,129.4-402.6,443.989-324.255,405.881,101.041,539.794-64.4,709.344-273.861,13.825-17.076,27.9-34.46,42.382-52.029C1682.7,448.916,1803.3,344.57,2095.283,374.179c117.042,11.865,248.995,77.8,362.015,180.887,113.05,103.108,186.387,224.471,201.2,332.965,12.52,91.664-11.427,216.128-196.636,288.5C2339.83,1224.235,2229.893,1254.415,2132.435,1276.595Zm27.469-.986c91.021-21.621,192.374-50.58,303.878-94.158,188.407-73.632,212.726-200.59,199.948-294.135-14.991-109.7-88.929-232.225-202.881-336.15-113.843-103.835-246.9-170.26-365.038-182.239-294.454-29.843-415.967,75.146-605.425,304.967-14.492,17.581-28.575,34.976-42.412,52.065C1279.6,933.965,1146.573,1098.25,744.01,998.015c-137.448-34.219-248.321-5.3-329.532,85.972-67.362,75.7-99.49,175.652-120.756,241.788-10.393,32.332-19.361,60.251-25.924,60.606l-1.917.1-.493,1.851c-50.34,189.242-50.2,314.133.445,381.82,41.33,55.233,107.814,61.5,166.888,63.053.829.018,1.659.03,2.5.03,40.356,0,85.881-25.1,138.433-54.061,57.318-31.593,125.3-69,202.85-80.328-78.711,13.326-147.269,54.241-205.236,88.851-53.387,31.881-99.49,59.41-140.459,59.957-66.2.859-133.27-5.68-176.643-59.41-54.295-67.278-59.488-198.829-15.43-391.052,7.279-3.066,12.659-20.827,23.833-59.735,37.176-129.423,124.14-432.544,458.282-347.366,418.407,106.654,556.023-64.748,730.238-281.759,14.287-17.8,28.833-35.92,43.812-54.229,195.7-239.275,320.667-347.949,619.43-311.128,117.8,14.522,251.177,84.054,365.916,190.757,115.635,107.526,190.468,233.1,205.333,344.535,12.448,93.359-11.841,220.636-198.24,296.768C2366.367,1224.439,2257.218,1254.511,2159.9,1275.609Zm329.43-95.7c189.513-77.406,214.163-207.142,201.474-302.346-15.015-112.623-90.45-239.353-206.962-347.7C2368.308,422.421,2233.86,352.4,2114.98,337.736c-301.432-37.152-427.219,72.219-624.161,313.027-14.991,18.327-29.543,36.455-43.842,54.271-173.031,215.527-309.691,385.781-724.828,279.95C383.132,898.58,295.1,1205.109,257.5,1336c-7.928,27.6-16.127,56.134-21.116,56.4l-1.984.1-.451,1.935c-45.453,197.464-40.182,327.363,16.109,397.111,42.454,52.6,106.288,61.448,170.266,61.448q5.274,0,10.555-.072c42.382-.571,89.055-28.437,143.091-60.7,61.508-36.726,129.267-77.142,207.731-89.079-79.45,13.963-147.732,57.763-209.823,97.59-53.988,34.628-100.614,64.537-143.1,66.653-118.814,5.879-162.975-25.876-190.51-57.739-59.915-69.334-70.3-206.108-30.865-406.56,5.806-3.078,9.954-18.26,19.252-54.794,22.137-87.005,68.21-268.049,202.772-347.51,73.247-43.253,163.931-51.229,269.533-23.736,91.694,23.881,170.236,34.652,238.854,34.646,253.887-.018,371.451-147.527,512.265-324.279,14.762-18.531,29.789-37.393,45.267-56.459,105.536-129.988,184.463-215.509,275.58-267.971,99.55-57.324,211.325-73.126,362.453-51.223,116.885,16.938,255.168,91.928,369.907,200.6,118.231,111.98,194.567,241.806,209.426,356.184,17.714,136.317-51.4,241.763-199.887,304.954-118.057,50.238-224.964,80.171-320.895,100.331C2281.513,1253.123,2380.649,1224.307,2489.334,1179.912Zm25.546-1.545c190.636-81.127,215.647-213.622,203.061-310.49-15.021-115.562-91.934-246.536-211.037-359.334-115.5-109.4-254.855-184.908-372.78-201.991-152.36-22.083-265.194-6.083-365.837,51.867-91.826,52.864-171.113,138.746-277.041,269.221-15.49,19.078-30.528,37.958-45.3,56.495-177.677,223.022-318.028,399.179-745.661,287.812-107.033-27.872-199.057-19.7-273.536,24.3C290.284,1076.828,243.851,1259.308,221.539,1347c-6.251,24.56-12.713,49.955-16.614,51.428l-2,.108-.4,2.014C162.411,1603.5,173.1,1742.3,234.27,1813.1c26.069,30.174,66.467,60.281,166.876,60.281q13.236,0,27.884-.721c43.9-2.182,91.075-32.44,145.694-67.476,63.726-40.879,134.039-85.942,216.032-98.1-82.894,14.263-153.646,62.632-217.9,106.594-54.74,37.459-102.014,69.8-146.127,73.451-70.308,5.819-149.565,3.709-204.371-55.9-65.625-71.383-81.205-213.441-46.313-422.248,4.526-3.017,7.562-15.766,14.955-49.005,20.581-92.439,63.4-284.783,204.894-370.772,75.879-46.114,170.47-54.6,281.158-25.191,95.36,25.329,176.9,36.738,248.015,36.732,259.6-.006,379.914-152.1,523.974-334.227,15.237-19.258,30.751-38.871,46.74-58.7,94.645-117.39,181.344-219.392,284.037-278.766,102.609-59.314,217.5-74.269,372.6-48.489,117.762,19.583,257.572,98.257,373.988,210.448,120.84,116.464,198.655,250.557,213.489,367.911,17.539,138.74-52.173,247.005-201.612,313.081-116.019,51.3-221.381,81.271-316.411,100.7A1694.07,1694.07,0,0,0,2514.88,1178.367Zm25.546-1.539c191.766-84.787,217.174-220.035,204.713-318.563-14.991-118.526-93.371-253.767-215.064-371.049-117.149-112.906-258.005-192.1-376.783-211.854-156.357-26-272.364-10.843-376.11,49.126-103.469,59.825-190.516,162.212-285.5,280.016-15.994,19.841-31.52,39.466-46.763,58.743C1262.6,893.753,1118.6,1075.842,678.415,958.915,566.3,929.138,470.323,937.806,393.164,984.7c-143.416,87.156-186.567,280.984-207.3,374.132-4.935,22.156-9.593,43.1-12.6,45.639l-1.821.1-.349,2.08c-35.487,211.3-19.541,355.343,47.395,428.151,44.143,48.008,103.258,59.771,161.214,59.771,16.025,0,31.971-.9,47.473-2.182,45.5-3.757,93.311-36.473,148.675-74.353,65.114-44.557,136.955-93.683,221.135-106.588-84.992,15.069-157.253,67.458-222.818,115.04-55.617,40.356-103.643,75.212-149.445,80.381-69.544,7.844-157.181,8.812-218.226-53.934-71.426-73.415-92.217-220.8-61.8-438.116,3.348-2.933,5.494-13.5,10.988-42.238,17.257-90.281,57.661-301.7,206.523-394.8,78.53-49.114,177.094-58.142,292.963-26.8C754.21,977.765,838.709,989.81,912.3,989.8c265.3-.018,388.419-156.67,535.718-344.169,15.592-19.848,31.719-40.374,48.212-60.961,205.441-256.466,338.062-398.482,675.246-335.315,118.718,22.252,260.084,104.6,378.159,220.293,123.454,120.966,202.736,259.369,217.522,379.71,17.341,141.162-52.991,252.2-203.385,321.129A1398.747,1398.747,0,0,1,2251,1271.876,1527.741,1527.741,0,0,0,2540.426,1176.828Zm25.545-1.539c152.691-69.971,224.068-182.894,206.421-326.563-14.925-121.513-94.771-261.052-219.067-382.835-118.79-116.392-261.172-199.274-380.882-221.712-160.294-30.042-279.445-15.772-386.31,46.277-105.422,61.213-195.529,167.97-294.027,290.925-16.511,20.6-32.638,41.143-48.236,61-186.958,237.977-334.629,425.938-787.316,303.5C539.219,914.141,439.242,923.368,359.414,973.3c-150.809,94.32-191.52,307.323-208.909,398.283-3.516,18.393-6.84,35.8-9,38.926l-1.533.084-.307,2.152c-30.931,219.735-9.719,369.071,63.053,443.863,45.844,47.124,105.921,59.272,162.566,59.272a538.009,538.009,0,0,0,60.029-3.769c47.184-5.326,95.739-40.56,151.951-81.355,65.048-47.208,136.744-99.141,220.678-114.054-84.727,17.059-156.784,72.237-222.283,122.432-54.211,41.546-105.416,80.778-152.949,87.474-72.8,10.237-164.947,13.6-232.05-51.866-77.3-75.429-103.306-228.192-77.316-454.063,2.176-2.525,3.582-10.513,7.381-34.429C134.588,1299.1,171.41,1067.6,328.23,966.561c81.223-52.336,183.856-61.959,305.051-28.623,102.6,28.22,189.975,40.9,265.963,40.891,270.411-.018,396.143-160.607,546.508-352.7,16.457-21.026,33.468-42.76,50.911-64.591C1708.8,294.11,1845.609,146.3,2190.511,218.158c119.746,24.951,262.711,110.988,382.427,230.157,126.075,125.5,206.817,268.229,221.514,391.581,17.107,143.56-53.856,257.362-205.212,329.094-113.05,53.58-216.248,84-310.034,102.387A1402.208,1402.208,0,0,0,2565.971,1175.289Zm25.54-1.538c153.6-72.8,225.595-188.461,208.194-334.491-14.84-124.512-96.129-268.373-223.034-394.695C2456.258,324.7,2312.307,238.132,2191.6,212.989c-164.261-34.225-286.6-20.905-396.648,43.181-107.911,62.848-200.795,173.987-302.406,302.069-17.449,21.837-34.478,43.59-50.935,64.621C1250.2,867.4,1099.01,1060.551,634.687,932.841c-122.7-33.756-226.773-23.9-309.306,29.272-158.81,102.315-195.9,335.507-209.865,423.3-2.362,14.865-4.43,27.842-5.842,31.142l-1.172.06-.258,2.212c-26.429,228.264.06,382.926,78.735,459.683,47.509,46.361,106.943,59.079,163.552,59.079,25.311,0,50.063-2.542,72.91-5.758,48.915-6.882,100.656-46.535,155.426-88.514,68.4-52.42,144.035-110.327,233.469-123.749-90.191,15.766-166.113,76.805-234.905,132.152-55.214,44.437-107.37,86.4-156.73,94.627-70.049,11.667-171.757,19.21-245.845-49.7-83.249-77.418-114.5-235.608-92.878-470.208,1.346-2.308,2.116-8.517,4.214-25.263,10.375-82.936,41.955-335.309,207.635-445.51,83.952-55.84,190.8-66.2,317.571-30.781,106.264,29.687,196.593,43.007,275.063,43,276.38-.024,404.967-165.361,558.637-363.06,16.812-21.627,34.2-43.992,52.017-66.443,219.8-278.327,361.269-431.877,712.458-351.441,120.852,27.679,265.44,117.408,386.779,240.021,128.708,130.054,210.886,277.125,225.469,403.506,16.836,145.953-54.77,262.483-207.1,336.992-112.167,54.866-214.764,85.647-308.279,103.679C2393.512,1252.275,2488.4,1222.618,2591.511,1173.751Zm25.54-1.545c154.518-75.579,227.139-193.96,210.021-342.335-14.714-127.53-97.44-275.736-226.959-406.614C2478.1,299.959,2332.545,209.7,2210.755,181.806c-354.309-81.151-496.655,73.319-717.772,353.311-17.828,22.468-35.223,44.84-52.041,66.479-100.217,128.924-186.766,240.267-309.36,304.636-134.436,70.584-299.268,74.894-518.762,13.584C484.5,883.973,376.2,894.558,290.9,951.281,123.216,1062.817,91.407,1317,80.954,1400.53c-1.262,10.092-4.135,24.392-4.135,24.392-21.963,236.877,9.81,396.889,94.447,475.6,49.48,46.018,110.7,58.749,167.05,58.749,29.964,0,58.551-3.6,83.249-7.712,50.725-8.445,103.4-50.833,159.176-95.715,69.544-55.966,146.445-117.792,237.718-131.881-92,16.5-169.166,81.4-239.077,140.248C523.1,1911.592,469.933,1956.342,418.7,1966.1c-72.916,13.885-179.192,24.073-259.6-47.443C69.81,1839.235,33.319,1675.49,50.618,1432c.553-1.905.89-5.872,1.6-14.2,25-290.276,126.141-417.319,206.589-472.78,86.753-59.819,198.03-70.969,330.7-33.143,109.684,30.907,202.838,44.774,283.659,44.768,283.069-.018,414.488-170.11,571.548-373.441,17.077-22.107,34.736-44.972,52.828-67.927C1725.1,225.93,1871.233,66.562,2228.625,155.761c122.03,30.456,268.289,123.881,391.239,249.908C2751.192,540.3,2834.8,691.738,2849.24,821.161c16.547,148.327-55.731,267.562-209.023,344.818-111.379,56.128-213.471,87.33-306.758,105.092C2420.271,1252.383,2514.676,1222.282,2617.051,1172.206Zm48.645-7.766c-111.06,57.571-213.015,89.235-306.367,106.769,86.873-18.513,181.158-49.084,283.262-100.542,155.443-78.332,228.714-199.4,211.9-350.113-14.571-130.565-98.708-283.135-230.843-418.587-123.6-126.706-270.8-220.666-393.733-251.345-360.554-89.969-507.607,70.314-736.5,361.365-18.11,22.973-35.776,45.844-52.864,67.963-102.639,132.879-191.279,247.642-316.964,313.778-137.76,72.477-307,76.631-532.623,13.043C456.709,868.508,343.954,879.9,255.837,940.649,108.4,1042.3,60.89,1255.972,46.994,1417.324c-.415,4.791-1.4,11.348-1.4,11.348L45.425,1431c-17.533,245.557,19.541,410.948,110.189,491.588,51.278,45.609,112.593,58.737,169.449,58.737,34.219,0,66.827-4.754,94.645-10.05,52.588-10.014,106.264-55.191,163.1-103.036,67.284-56.639,141.349-118.964,228.618-137.5C724.067,1751.49,650.1,1816.37,581.5,1876.574c-57.4,50.382-111.625,97.963-164.778,109.257-118.766,25.227-208.182,10.483-273.32-45.122C48,1859.287,6.235,1689.935,19.272,1437.346l.006-.12c.018-3.51,4.424-352.625,198.565-497.9,56.459-42.249,123.581-63.419,200.608-63.419q69.334,0,149.2,22.907c113.525,32.614,209.775,47.22,293.161,47.22,288.461-.012,422.669-174.858,582.987-383.755,17.527-22.841,35.649-46.457,54.217-70.157,116.392-148.585,214.391-267.538,327.17-334.2,118.394-70,248.706-80.3,422.519-33.378,123.292,33.275,271.246,130.4,395.777,259.82,133.961,139.221,218.977,295.043,233.246,427.519C2892.938,962.558,2819.967,1084.474,2665.7,1164.44Z" transform="translate(-11.65 -90.827)" fill="#701FFF"/>
    </g>
  </g>
</svg>
