<?xml version="1.0" encoding="utf-8"?>
<!-- Generator: Adobe Illustrator 25.4.1, SVG Export Plug-In . SVG Version: 6.00 Build 0)  -->
<svg version="1.1" id="Layer_1" xmlns="http://www.w3.org/2000/svg" xmlns:xlink="http://www.w3.org/1999/xlink" x="0px" y="0px"
	 viewBox="0 0 595.28 841.89" style="enable-background:new 0 0 595.28 841.89;" xml:space="preserve">
<g>
	<g>
		<path class="st0" d="M309.36,313.83c-4.47,1.58-7.32,5.83-8.36,10.31c-1.37,5.93,0.41,12.06,2.13,17.71
			c1.9,6.26,3.78,12.63,2.33,19.2c-1.25,5.66-4.18,10.92-7.05,15.9c-5.31,9.19-11.56,17.97-15.45,27.91
			c-1.71,4.37-2.96,9.07-2.74,13.8c0.23,4.94,0.02,10.01,1.67,14.75c2.01,5.73,6.12,10.34,9.84,15.02
			c4.18,5.26,8.36,10.51,12.54,15.77c1.01,1.27,2.03,2.55,3.04,3.82c0.2,0.25,0.55-0.1,0.35-0.35c-4.09-5.14-8.17-10.27-12.26-15.41
			c-2.02-2.54-4.04-5.07-6.05-7.61c-1.86-2.34-3.71-4.71-5.17-7.33c-1.35-2.42-2.33-5.07-2.81-7.81c-0.42-2.38-0.41-4.8-0.48-7.2
			c-0.08-2.44-0.32-4.85-0.07-7.29c0.24-2.38,0.8-4.72,1.53-6.99c3.18-9.95,9.26-18.76,14.59-27.64c2.74-4.57,5.46-9.24,7.42-14.21
			c1.06-2.67,1.84-5.47,2.07-8.34c0.25-3.08-0.18-6.18-0.88-9.18c-1.44-6.17-4.06-12.11-4.48-18.49c-0.34-5.1,1.05-10.65,5.14-14.03
			c0.97-0.8,2.07-1.42,3.26-1.84C309.8,314.2,309.67,313.72,309.36,313.83L309.36,313.83z"/>
	</g>
</g>
<g>
	<g>
		<path class="st0" d="M308.55,322.68c-0.28,2.81-2.46,4.65-4.63,6.17c-2.12,1.48-4.46,2.79-6.2,4.75
			c-2.15,2.41-2.53,5.45-1.84,8.53c0.89,3.92,2.74,7.56,3.67,11.49c1.87,7.92,1.68,16.31-0.52,24.15
			c-2.22,7.92-6.76,14.57-11.34,21.28c-4.43,6.5-8.34,13.17-9.96,20.96c-1.54,7.4-1.24,15.19,0.91,22.44
			c2.18,7.36,6.44,13.65,11.1,19.66c4.78,6.17,10.47,12.38,13.05,19.88c2.58,7.5,2.37,15.63,2.28,23.46
			c-0.04,3.58-0.12,7.28,0.89,10.75c0.87,3,2.68,6.09,4.95,8.25c1.15,1.1,2.49,1.94,3.95,2.56c0.29,0.12,0.55-0.31,0.25-0.43
			c-3.3-1.4-5.51-3.97-7.19-7.07c-1.88-3.46-2.33-7.18-2.36-11.07c-0.07-7.51,0.43-15.08-1.16-22.48c-0.79-3.67-2.14-7.1-4.1-10.3
			c-1.98-3.25-4.27-6.29-6.6-9.29c-4.74-6.1-9.8-12.13-12.87-19.29c-3.08-7.19-4.17-15.19-3.27-22.95
			c0.45-3.94,1.43-7.81,2.91-11.49c1.5-3.73,3.57-7.19,5.77-10.54c4.31-6.55,9.15-12.8,11.95-20.2c2.74-7.23,3.68-15.14,2.8-22.82
			c-0.44-3.8-1.32-7.53-2.65-11.12c-1.37-3.7-3.47-8.12-1.62-12.02c2.28-4.82,8.47-5.9,11.28-10.26c0.59-0.91,0.92-1.92,1.03-2.99
			C309.09,322.36,308.59,322.37,308.55,322.68L308.55,322.68z"/>
	</g>
</g>
</svg>
